<?xml version="1.0" encoding="UTF-8"?>
<svg version="1.1" xmlns="http://www.w3.org/2000/svg" width="512" height="512">
<path d="M0 0 C0.89036229 -0.00367669 1.78072458 -0.00735338 2.69806755 -0.01114148 C5.69966755 -0.02220786 8.70123296 -0.02602718 11.70285034 -0.02983093 C13.84777436 -0.03609343 15.99269729 -0.04274004 18.13761902 -0.04974365 C23.97875677 -0.06717505 29.81988631 -0.07771157 35.66104364 -0.08594918 C39.30914484 -0.09109555 42.95724347 -0.09717149 46.60534286 -0.10346031 C58.0155622 -0.12251966 69.42577504 -0.13674835 80.83600724 -0.14507228 C94.01384119 -0.15484383 107.19150714 -0.18115822 120.36928189 -0.22157317 C130.54940692 -0.25172454 140.72948377 -0.2665403 150.90965259 -0.26985329 C156.99205079 -0.27220519 163.07426966 -0.28118374 169.15662003 -0.30631447 C174.88084961 -0.32958242 180.60478164 -0.33383338 186.32904625 -0.32355309 C188.42847241 -0.32305728 190.52791314 -0.32939074 192.62729454 -0.34310913 C195.49740999 -0.36081214 198.36645581 -0.3537294 201.23657227 -0.34057617 C202.06402297 -0.35154542 202.89147368 -0.36251466 203.74399865 -0.37381631 C210.47178871 -0.29957053 215.65872573 1.65801214 220.74142456 6.11201477 C221.28025269 6.76299133 221.81908081 7.4139679 222.37423706 8.08467102 C222.92853394 8.73306946 223.48283081 9.3814679 224.05392456 10.04951477 C226.73328028 13.93820131 227.74718408 17.45635397 227.77770996 22.1522522 C227.78887344 23.13516739 227.80003693 24.11808258 227.8115387 25.13078308 C227.81369888 26.19749237 227.81585907 27.26420166 227.81808472 28.36323547 C227.82813034 29.49537979 227.83817596 30.62752411 227.848526 31.79397583 C227.87939488 35.53279619 227.89640372 39.27154481 227.91329956 43.01045227 C227.93200819 45.60406106 227.95158138 48.19766375 227.97198486 50.79125977 C228.01809582 56.91802951 228.05549251 63.04479558 228.08865774 69.17164725 C228.12691226 76.14871291 228.17631366 83.12568579 228.22664189 90.10267317 C228.3298921 104.45076912 228.41917492 118.79892789 228.49923706 133.14717102 C229.24689331 132.79783508 229.99454956 132.44849915 230.76486206 132.08857727 C232.24212769 131.40601868 232.24212769 131.40601868 233.74923706 130.70967102 C234.72376831 130.25721008 235.69829956 129.80474915 236.70236206 129.33857727 C245.3110622 125.67146339 256.61268644 125.7599951 265.43673706 128.77217102 C276.59287027 133.58200091 285.0446834 140.82992739 289.99923706 152.14717102 C291.58413226 157.12827023 291.90858366 161.958343 291.99923706 167.14717102 C292.01792847 167.87033508 292.03661987 168.59349915 292.05587769 169.33857727 C291.9258828 180.51813756 286.25817601 189.85679054 280.68673706 199.20967102 C279.68047091 200.92583727 278.67421889 202.64201199 277.66882324 204.35868835 C276.6324045 206.1258826 275.59222023 207.89081793 274.55148315 209.6554718 C271.32775776 215.12974756 268.16734624 220.64059604 264.99923706 226.14717102 C263.75080702 228.31138806 262.50210836 230.47545018 261.25314331 232.63935852 C258.7385427 236.9978249 256.22569045 241.35729293 253.71408081 245.71748352 C253.08115112 246.81576477 252.44822144 247.91404602 251.79611206 249.04560852 C250.63023385 251.06875012 249.46479985 253.09214784 248.30001831 255.11592102 C247.74572144 256.07756165 247.19142456 257.03920227 246.62033081 258.02998352 C246.05353104 259.05044769 245.48673126 260.07091187 244.90275574 261.12229919 C243.13503419 264.19872396 241.1576072 267.04890166 239.08509827 269.92765808 C227.82279621 286.26514377 226.55558545 300.85174149 227.0095191 319.99110413 C227.08525349 323.88150878 227.07577796 327.77178675 227.07543945 331.66279602 C227.08647439 338.99886045 227.16473151 346.33239 227.27175534 353.66762161 C227.46112093 366.83361301 227.52334139 380.00072189 227.5752393 393.16787148 C227.59596964 397.77587847 227.64329187 402.38261052 227.71403003 406.99011421 C227.75502515 409.85078899 227.78012074 412.71146737 227.8019619 415.57234573 C227.82226528 417.51739567 227.86319476 419.46219654 227.90486145 421.40690613 C227.94897732 429.58250781 227.07554068 435.06606112 221.53439331 441.38935852 C220.88341675 441.92818665 220.23244019 442.46701477 219.56173706 443.02217102 C218.91333862 443.5764679 218.26494019 444.13076477 217.59689331 444.70185852 C212.73542799 448.0514715 208.46728053 448.3830343 202.69674683 448.14863586 C201.09622516 448.10284939 199.49568382 448.0577466 197.89512634 448.01322937 C196.62592692 447.97327913 196.62592692 447.97327913 195.33108711 447.93252182 C189.81747457 447.77713654 184.30147485 447.73437993 178.78622532 447.66634178 C173.98006934 447.60069378 169.17977399 447.50070361 164.37643433 447.32099915 C137.61397425 446.35765967 120.19530104 449.27830998 99.41030884 466.751297 C95.34056739 470.10078082 91.01980807 472.99868912 86.62423706 475.89717102 C85.99819077 476.34186737 85.37214447 476.78656372 84.72712708 477.24473572 C80.05399271 480.38879994 76.95168969 480.88610711 71.49923706 480.14717102 C69.01876831 478.79170227 69.01876831 478.79170227 67.49923706 476.14717102 C67.00175593 472.69411204 67.07894004 469.31531714 67.18673706 465.83467102 C67.20123901 464.4473175 67.20123901 464.4473175 67.21603394 463.03193665 C67.29863335 457.97900728 67.76520507 453.15216366 68.49923706 448.14717102 C67.5170948 448.15085819 66.53495255 448.15454536 65.5230484 448.15834427 C41.61962193 448.24716305 17.71621688 448.31288381 -6.18733978 448.35441971 C-17.74695197 448.37504032 -29.30645512 448.40315149 -40.86599731 448.44892883 C-50.94190815 448.48881176 -61.01774001 448.51460747 -71.09372759 448.523525 C-76.42835295 448.52873724 -81.76275238 448.54097775 -87.0973053 448.57009125 C-92.1205623 448.59728319 -97.14350073 448.60560831 -102.16682434 448.59960175 C-104.00824719 448.60070028 -105.84968093 448.60863158 -107.69104004 448.62399292 C-110.21096934 448.64398029 -112.72970572 448.63907884 -115.24966431 448.62818909 C-115.97342365 448.63984045 -116.69718299 448.65149182 -117.44287443 448.66349626 C-123.82507599 448.58926507 -128.94379121 446.38786228 -133.74295044 442.18232727 C-134.28177856 441.53135071 -134.82060669 440.88037415 -135.37576294 440.20967102 C-135.93005981 439.56127258 -136.48435669 438.91287415 -137.05545044 438.24482727 C-140.37999286 433.41974814 -140.76860681 429.07589591 -140.62576294 423.33467102 C-140.6167395 422.64179993 -140.60771606 421.94892883 -140.59841919 421.23506165 C-140.57502451 419.53894707 -140.53915935 417.84301231 -140.50076294 416.14717102 C-141.39795044 416.16811829 -142.29513794 416.18906555 -143.21951294 416.21064758 C-146.58176153 416.27924718 -149.94325529 416.32917396 -153.30593872 416.36689758 C-154.75495211 416.38688397 -156.20388619 416.41408299 -157.65261841 416.44892883 C-167.06052821 416.66937606 -174.27595084 416.72570845 -181.74295044 410.18232727 C-182.28177856 409.53135071 -182.82060669 408.88037415 -183.37576294 408.20967102 C-183.93005981 407.56127258 -184.48435669 406.91287415 -185.05545044 406.24482727 C-188.00905273 401.9581126 -188.75115279 398.24916947 -188.75803185 393.08819866 C-188.76448074 391.86398856 -188.77092963 390.63977846 -188.77757394 389.37847108 C-188.77463178 388.02310628 -188.77149635 386.66774189 -188.76818848 385.31237793 C-188.7719252 383.87008165 -188.77652681 382.42778739 -188.78191912 380.98549634 C-188.79416186 377.02166395 -188.79388716 373.05791588 -188.79153037 369.09406888 C-188.79112253 364.81924027 -188.80215826 360.5444388 -188.81164551 356.2696228 C-188.82826348 347.89420081 -188.83375541 339.51880697 -188.83487026 331.14336988 C-188.83582036 324.3357727 -188.83992875 317.52818482 -188.84627151 310.72059059 C-188.86388612 291.42251698 -188.87311005 272.12446562 -188.87161057 252.82638391 C-188.87153065 251.78586426 -188.87145074 250.74534461 -188.87136841 249.67329407 C-188.87128665 248.63150489 -188.87120489 247.58971571 -188.87112065 246.51635716 C-188.87030769 229.63147412 -188.8894472 212.74668028 -188.91764514 195.86182304 C-188.94636587 178.52722953 -188.96018588 161.19267953 -188.95845759 143.85806161 C-188.95779341 134.12492216 -188.96329812 124.3918762 -188.98481369 114.65875816 C-189.00301481 106.3718603 -189.00738163 98.08509832 -188.99379484 89.79818913 C-188.98725977 85.57033684 -188.98716733 81.34274532 -189.00450134 77.11491776 C-189.02021348 73.24283727 -189.01738777 69.37122474 -188.99993308 65.4991558 C-188.99685905 64.10011222 -189.00051083 62.70103388 -189.01165323 61.3020313 C-189.07837693 52.32848021 -188.64937019 45.88136696 -182.53591919 38.90498352 C-181.88494263 38.3661554 -181.23396606 37.82732727 -180.56326294 37.27217102 C-179.59066528 36.44072571 -179.59066528 36.44072571 -178.59841919 35.59248352 C-174.51883546 32.78159715 -171.05058201 31.89216159 -166.12809753 32.0705719 C-165.06232483 32.10276321 -163.99655212 32.13495453 -162.89848328 32.16812134 C-161.73864426 32.2130925 -160.57880524 32.25806366 -159.38381958 32.30439758 C-156.83284085 32.38348855 -154.2818178 32.46115919 -151.73075867 32.53761292 C-151.0599027 32.55898426 -150.38904673 32.5803556 -149.69786179 32.60237455 C-141.03044833 32.87502275 -132.36018359 32.98936142 -123.68958867 33.11318445 C-115.27481761 33.23442997 -106.86813135 33.40303476 -98.45852661 33.72773743 C-89.60907898 34.0616958 -80.76702934 34.25418822 -71.91091919 34.22529602 C-71.19865944 34.22305212 -70.4863997 34.22080822 -69.75255632 34.21849632 C-52.5833475 34.09222997 -38.20331317 32.76552636 -25.29359436 20.30506897 C-20.50280927 15.22853419 -16.22951108 9.8239042 -12.41749573 3.97889709 C-9.10890559 -0.90911912 -5.45250426 -0.00119552 0 0 Z " fill="#D0E6F7" transform="translate(204.50076293945313,15.852828979492188)"/>
<path d="M0 0 C0.89036229 -0.00367669 1.78072458 -0.00735338 2.69806755 -0.01114148 C5.69966755 -0.02220786 8.70123296 -0.02602718 11.70285034 -0.02983093 C13.84777436 -0.03609343 15.99269729 -0.04274004 18.13761902 -0.04974365 C23.97875677 -0.06717505 29.81988631 -0.07771157 35.66104364 -0.08594918 C39.30914484 -0.09109555 42.95724347 -0.09717149 46.60534286 -0.10346031 C58.0155622 -0.12251966 69.42577504 -0.13674835 80.83600724 -0.14507228 C94.01384119 -0.15484383 107.19150714 -0.18115822 120.36928189 -0.22157317 C130.54940692 -0.25172454 140.72948377 -0.2665403 150.90965259 -0.26985329 C156.99205079 -0.27220519 163.07426966 -0.28118374 169.15662003 -0.30631447 C174.88084961 -0.32958242 180.60478164 -0.33383338 186.32904625 -0.32355309 C188.42847241 -0.32305728 190.52791314 -0.32939074 192.62729454 -0.34310913 C195.49740999 -0.36081214 198.36645581 -0.3537294 201.23657227 -0.34057617 C202.06402297 -0.35154542 202.89147368 -0.36251466 203.74399865 -0.37381631 C210.47178871 -0.29957053 215.65872573 1.65801214 220.74142456 6.11201477 C221.28025269 6.76299133 221.81908081 7.4139679 222.37423706 8.08467102 C222.92853394 8.73306946 223.48283081 9.3814679 224.05392456 10.04951477 C226.73328028 13.93820131 227.74718408 17.45635397 227.77770996 22.1522522 C227.78887344 23.13516739 227.80003693 24.11808258 227.8115387 25.13078308 C227.81369888 26.19749237 227.81585907 27.26420166 227.81808472 28.36323547 C227.82813034 29.49537979 227.83817596 30.62752411 227.848526 31.79397583 C227.87939488 35.53279619 227.89640372 39.27154481 227.91329956 43.01045227 C227.93200819 45.60406106 227.95158138 48.19766375 227.97198486 50.79125977 C228.01809582 56.91802951 228.05549251 63.04479558 228.08865774 69.17164725 C228.12691226 76.14871291 228.17631366 83.12568579 228.22664189 90.10267317 C228.3298921 104.45076912 228.41917492 118.79892789 228.49923706 133.14717102 C229.24689331 132.79783508 229.99454956 132.44849915 230.76486206 132.08857727 C232.24212769 131.40601868 232.24212769 131.40601868 233.74923706 130.70967102 C234.72376831 130.25721008 235.69829956 129.80474915 236.70236206 129.33857727 C245.3110622 125.67146339 256.61268644 125.7599951 265.43673706 128.77217102 C276.59287027 133.58200091 285.0446834 140.82992739 289.99923706 152.14717102 C291.58413226 157.12827023 291.90858366 161.958343 291.99923706 167.14717102 C292.01792847 167.87033508 292.03661987 168.59349915 292.05587769 169.33857727 C291.9258828 180.51813756 286.25817601 189.85679054 280.68673706 199.20967102 C279.68047091 200.92583727 278.67421889 202.64201199 277.66882324 204.35868835 C276.6324045 206.1258826 275.59222023 207.89081793 274.55148315 209.6554718 C271.32775776 215.12974756 268.16734624 220.64059604 264.99923706 226.14717102 C263.75080702 228.31138806 262.50210836 230.47545018 261.25314331 232.63935852 C258.7385427 236.9978249 256.22569045 241.35729293 253.71408081 245.71748352 C253.08115112 246.81576477 252.44822144 247.91404602 251.79611206 249.04560852 C250.63023385 251.06875012 249.46479985 253.09214784 248.30001831 255.11592102 C247.74572144 256.07756165 247.19142456 257.03920227 246.62033081 258.02998352 C246.05353104 259.05044769 245.48673126 260.07091187 244.90275574 261.12229919 C243.13503419 264.19872396 241.1576072 267.04890166 239.08509827 269.92765808 C227.82279621 286.26514377 226.55558545 300.85174149 227.0095191 319.99110413 C227.08525349 323.88150878 227.07577796 327.77178675 227.07543945 331.66279602 C227.08647439 338.99886045 227.16473151 346.33239 227.27175534 353.66762161 C227.46112093 366.83361301 227.52334139 380.00072189 227.5752393 393.16787148 C227.59596964 397.77587847 227.64329187 402.38261052 227.71403003 406.99011421 C227.75502515 409.85078899 227.78012074 412.71146737 227.8019619 415.57234573 C227.82226528 417.51739567 227.86319476 419.46219654 227.90486145 421.40690613 C227.94897732 429.58250781 227.07554068 435.06606112 221.53439331 441.38935852 C220.88341675 441.92818665 220.23244019 442.46701477 219.56173706 443.02217102 C218.91333862 443.5764679 218.26494019 444.13076477 217.59689331 444.70185852 C212.73542799 448.0514715 208.46728053 448.3830343 202.69674683 448.14863586 C201.09622516 448.10284939 199.49568382 448.0577466 197.89512634 448.01322937 C196.62592692 447.97327913 196.62592692 447.97327913 195.33108711 447.93252182 C189.81747457 447.77713654 184.30147485 447.73437993 178.78622532 447.66634178 C173.98006934 447.60069378 169.17977399 447.50070361 164.37643433 447.32099915 C137.61397425 446.35765967 120.19530104 449.27830998 99.41030884 466.751297 C95.34056739 470.10078082 91.01980807 472.99868912 86.62423706 475.89717102 C85.99819077 476.34186737 85.37214447 476.78656372 84.72712708 477.24473572 C80.05399271 480.38879994 76.95168969 480.88610711 71.49923706 480.14717102 C69.01876831 478.79170227 69.01876831 478.79170227 67.49923706 476.14717102 C67.00175593 472.69411204 67.07894004 469.31531714 67.18673706 465.83467102 C67.20123901 464.4473175 67.20123901 464.4473175 67.21603394 463.03193665 C67.29863335 457.97900728 67.76520507 453.15216366 68.49923706 448.14717102 C67.5170948 448.15085819 66.53495255 448.15454536 65.5230484 448.15834427 C41.61962193 448.24716305 17.71621688 448.31288381 -6.18733978 448.35441971 C-17.74695197 448.37504032 -29.30645512 448.40315149 -40.86599731 448.44892883 C-50.94190815 448.48881176 -61.01774001 448.51460747 -71.09372759 448.523525 C-76.42835295 448.52873724 -81.76275238 448.54097775 -87.0973053 448.57009125 C-92.1205623 448.59728319 -97.14350073 448.60560831 -102.16682434 448.59960175 C-104.00824719 448.60070028 -105.84968093 448.60863158 -107.69104004 448.62399292 C-110.21096934 448.64398029 -112.72970572 448.63907884 -115.24966431 448.62818909 C-115.97342365 448.63984045 -116.69718299 448.65149182 -117.44287443 448.66349626 C-123.82507599 448.58926507 -128.94379121 446.38786228 -133.74295044 442.18232727 C-134.28177856 441.53135071 -134.82060669 440.88037415 -135.37576294 440.20967102 C-135.93005981 439.56127258 -136.48435669 438.91287415 -137.05545044 438.24482727 C-140.37999286 433.41974814 -140.76860681 429.07589591 -140.62576294 423.33467102 C-140.6167395 422.64179993 -140.60771606 421.94892883 -140.59841919 421.23506165 C-140.57502451 419.53894707 -140.53915935 417.84301231 -140.50076294 416.14717102 C-141.39795044 416.16811829 -142.29513794 416.18906555 -143.21951294 416.21064758 C-146.58176153 416.27924718 -149.94325529 416.32917396 -153.30593872 416.36689758 C-154.75495211 416.38688397 -156.20388619 416.41408299 -157.65261841 416.44892883 C-167.06052821 416.66937606 -174.27595084 416.72570845 -181.74295044 410.18232727 C-182.28177856 409.53135071 -182.82060669 408.88037415 -183.37576294 408.20967102 C-183.93005981 407.56127258 -184.48435669 406.91287415 -185.05545044 406.24482727 C-188.00905273 401.9581126 -188.75115279 398.24916947 -188.75803185 393.08819866 C-188.76448074 391.86398856 -188.77092963 390.63977846 -188.77757394 389.37847108 C-188.77463178 388.02310628 -188.77149635 386.66774189 -188.76818848 385.31237793 C-188.7719252 383.87008165 -188.77652681 382.42778739 -188.78191912 380.98549634 C-188.79416186 377.02166395 -188.79388716 373.05791588 -188.79153037 369.09406888 C-188.79112253 364.81924027 -188.80215826 360.5444388 -188.81164551 356.2696228 C-188.82826348 347.89420081 -188.83375541 339.51880697 -188.83487026 331.14336988 C-188.83582036 324.3357727 -188.83992875 317.52818482 -188.84627151 310.72059059 C-188.86388612 291.42251698 -188.87311005 272.12446562 -188.87161057 252.82638391 C-188.87153065 251.78586426 -188.87145074 250.74534461 -188.87136841 249.67329407 C-188.87128665 248.63150489 -188.87120489 247.58971571 -188.87112065 246.51635716 C-188.87030769 229.63147412 -188.8894472 212.74668028 -188.91764514 195.86182304 C-188.94636587 178.52722953 -188.96018588 161.19267953 -188.95845759 143.85806161 C-188.95779341 134.12492216 -188.96329812 124.3918762 -188.98481369 114.65875816 C-189.00301481 106.3718603 -189.00738163 98.08509832 -188.99379484 89.79818913 C-188.98725977 85.57033684 -188.98716733 81.34274532 -189.00450134 77.11491776 C-189.02021348 73.24283727 -189.01738777 69.37122474 -188.99993308 65.4991558 C-188.99685905 64.10011222 -189.00051083 62.70103388 -189.01165323 61.3020313 C-189.07837693 52.32848021 -188.64937019 45.88136696 -182.53591919 38.90498352 C-181.88494263 38.3661554 -181.23396606 37.82732727 -180.56326294 37.27217102 C-179.59066528 36.44072571 -179.59066528 36.44072571 -178.59841919 35.59248352 C-174.51883546 32.78159715 -171.05058201 31.89216159 -166.12809753 32.0705719 C-165.06232483 32.10276321 -163.99655212 32.13495453 -162.89848328 32.16812134 C-161.73864426 32.2130925 -160.57880524 32.25806366 -159.38381958 32.30439758 C-156.83284085 32.38348855 -154.2818178 32.46115919 -151.73075867 32.53761292 C-151.0599027 32.55898426 -150.38904673 32.5803556 -149.69786179 32.60237455 C-141.03044833 32.87502275 -132.36018359 32.98936142 -123.68958867 33.11318445 C-115.27481761 33.23442997 -106.86813135 33.40303476 -98.45852661 33.72773743 C-89.60907898 34.0616958 -80.76702934 34.25418822 -71.91091919 34.22529602 C-71.19865944 34.22305212 -70.4863997 34.22080822 -69.75255632 34.21849632 C-52.5833475 34.09222997 -38.20331317 32.76552636 -25.29359436 20.30506897 C-20.50280927 15.22853419 -16.22951108 9.8239042 -12.41749573 3.97889709 C-9.10890559 -0.90911912 -5.45250426 -0.00119552 0 0 Z M3.49923706 16.14717102 C3.4977705 16.7006317 3.49630394 17.25409239 3.49479294 17.82432461 C3.45766194 31.32182356 3.39831396 44.81906957 3.31533432 58.31636715 C3.27587055 64.84371872 3.24367641 71.3709356 3.22824097 77.89839172 C3.21306754 84.20091863 3.17860873 90.50307522 3.13092804 96.80543709 C3.11612152 99.20667357 3.10819647 101.60796293 3.10735321 104.00924492 C3.10497974 107.37975657 3.07786726 110.74924801 3.0451355 114.11958313 C3.05268105 115.59989265 3.05268105 115.59989265 3.06037903 117.11010742 C2.94938235 124.52579458 1.33215349 130.64837321 -3.39529419 136.48701477 C-4.02822388 137.01424133 -4.66115356 137.5414679 -5.31326294 138.08467102 C-5.93845825 138.62994446 -6.56365356 139.1752179 -7.20779419 139.73701477 C-13.45712296 143.58029874 -20.09615949 143.45041397 -27.20950317 143.46601868 C-28.79111488 143.48108711 -28.79111488 143.48108711 -30.40467834 143.49645996 C-33.87289917 143.5272302 -37.341043 143.54431017 -40.80935669 143.56123352 C-43.22074544 143.5799501 -45.63212767 143.59952387 -48.04350281 143.61991882 C-54.37766678 143.67119413 -60.71185197 143.71084463 -67.04611206 143.74806213 C-73.51477285 143.78813052 -79.98334571 143.83920996 -86.45193481 143.88935852 C-99.13481461 143.9860634 -111.81774488 144.07085982 -124.50076294 144.14717102 C-124.56940317 179.98718199 -124.62227856 215.82718145 -124.65395893 251.66724459 C-124.65771113 255.89680026 -124.66159409 260.12635579 -124.66555786 264.35591125 C-124.66634479 265.19795307 -124.66713172 266.03999488 -124.6679425 266.90755311 C-124.68100269 280.54856622 -124.7046599 294.18954146 -124.73222133 307.8305321 C-124.76025849 321.82349743 -124.77693562 335.81644292 -124.78302842 349.80943519 C-124.78714838 358.44650444 -124.80016913 367.08346669 -124.82451234 375.72050301 C-124.84034869 381.6401957 -124.84516808 387.55983292 -124.84126707 393.47954526 C-124.83934223 396.89686278 -124.84232931 400.31399308 -124.85837936 403.73127747 C-124.87324231 407.43436518 -124.86973879 411.1369901 -124.86152649 414.84008789 C-124.87026501 415.9227711 -124.87900354 417.00545431 -124.88800687 418.12094611 C-124.92254517 425.15465456 -124.92254517 425.15465456 -121.50076294 431.14717102 C-118.47956422 432.65777038 -115.36039318 432.28058387 -112.04711914 432.26742554 C-111.26953534 432.26827996 -110.49195154 432.26913439 -109.6908046 432.2700147 C-107.07128199 432.27166885 -104.45182267 432.26614918 -101.83230591 432.26069641 C-99.96011354 432.2604145 -98.08792106 432.26057235 -96.21572876 432.26113892 C-91.12095873 432.26142674 -86.02621208 432.2555325 -80.93144751 432.24856496 C-75.61162782 432.24232885 -70.29180764 432.24172742 -64.97198486 432.24053955 C-54.89266199 432.237427 -44.81334991 432.22921463 -34.7340318 432.21919006 C-23.26141192 432.20802657 -11.78879154 432.20251788 -0.31616759 432.19749463 C23.28897329 432.18703196 46.89410457 432.16943398 70.49923706 432.14717102 C70.52185608 431.19379852 70.5444751 430.24042603 70.56777954 429.25816345 C70.66268399 425.64522184 70.80296308 422.03510854 70.95547485 418.42417908 C71.01487947 416.87547864 71.0627443 415.32628283 71.09780884 413.77684021 C71.48247419 397.47350626 77.32541476 386.79199239 86.36398315 373.36982727 C89.66484548 368.38796326 92.59704235 363.20836024 95.56173706 358.02217102 C96.70815158 356.05744755 97.85659407 354.09390601 99.00704956 352.13154602 C104.58352863 342.58894169 110.09135197 333.00659309 115.60812378 323.42939758 C118.73603854 318.0005716 121.86782154 312.57397821 124.99923706 307.14717102 C126.24925585 304.98051519 127.49925584 302.81384852 128.74923706 300.64717102 C181.24923707 209.647171 181.24923707 209.647171 183.12692261 206.39253235 C184.3679896 204.24133878 185.60903799 202.09013447 186.85006714 199.93891907 C189.7642205 194.88754103 192.67855524 189.83626792 195.59356689 184.78538513 C196.62597184 182.99650184 197.65831662 181.20758385 198.69064331 179.4186554 C199.98609654 177.17379466 201.28166276 174.92899912 202.57736206 172.6842804 C203.1638855 171.66785461 203.75040894 170.65142883 204.35470581 169.60420227 C204.86670532 168.71708557 205.37870483 167.82996887 205.90621948 166.91596985 C206.43191528 166.00226624 206.95761108 165.08856262 207.49923706 164.14717102 C208.1817453 163.2076358 208.86425354 162.26810059 209.56744385 161.3000946 C212.62601099 155.89276847 212.04807555 149.9775741 212.00094604 143.93159485 C212.00473371 142.59716218 212.01023743 141.26273346 212.01731873 139.92831421 C212.03122856 136.32096847 212.02013738 132.71410205 212.00360751 129.10678315 C211.989717 125.32635296 211.99622131 121.54594946 211.9997406 117.76550293 C212.00243858 111.42137458 211.98899934 105.07743588 211.96578979 98.73335266 C211.93914812 91.40039874 211.93744533 84.06776114 211.94917816 76.73477536 C211.9599565 69.67343019 211.95377069 62.61219936 211.93962288 55.55086327 C211.93386699 52.5481413 211.93394251 49.54550311 211.93868828 46.54277992 C211.94434623 42.35319913 211.92514207 38.16409113 211.90328979 33.9745636 C211.90779144 32.72824158 211.91229309 31.48191956 211.91693115 30.1978302 C211.9020742 28.48826897 211.9020742 28.48826897 211.88691711 26.74417114 C211.88448722 25.75403928 211.88205732 24.76390741 211.87955379 23.74377155 C211.43351996 20.6984896 210.63070687 19.34196904 208.49923706 17.14717102 C204.78070658 15.90766086 201.34179952 16.01240528 197.46977234 16.0269165 C196.64233149 16.02606208 195.81489064 16.02520765 194.96237582 16.02432734 C192.18012614 16.02267566 189.39793629 16.02818884 186.61569214 16.03364563 C184.62512717 16.03392759 182.6345621 16.03376959 180.64399719 16.03320312 C175.23111527 16.03291551 169.81825537 16.03880642 164.40537858 16.04577708 C158.75190736 16.05201663 153.09843568 16.0526149 147.44496155 16.05380249 C136.73526806 16.05691403 126.02558474 16.06512504 115.31589574 16.07515198 C103.12500748 16.08631861 90.93411874 16.09182496 78.74322665 16.09684741 C53.66189114 16.10730778 28.58056467 16.12490381 3.49923706 16.14717102 Z " fill="#000000" transform="translate(204.50076293945313,15.852828979492188)"/>
<path d="M0 0 C0.94084442 -0.00687332 1.88168884 -0.01374664 2.8510437 -0.02082825 C3.8709993 -0.00285187 4.8909549 0.01512451 5.94181824 0.03364563 C7.0251947 0.0329155 8.10857117 0.03218536 9.22477722 0.03143311 C12.80178583 0.03491347 16.37748857 0.07379862 19.95426941 0.11299133 C22.43576343 0.12231779 24.91726667 0.12943469 27.39877319 0.13442993 C33.92725583 0.15351254 40.4551815 0.20262557 46.98344421 0.25794983 C53.64613849 0.3118178 60.30899479 0.33193811 66.97184753 0.35713196 C80.04304858 0.41074196 93.11386373 0.4951088 106.18473816 0.60127258 C101.86182246 5.77063844 97.32422725 10.59536909 92.54289246 15.34077454 C91.80235123 16.0798555 91.06181 16.81893646 90.29882812 17.58041382 C88.70234661 19.17311039 87.10471158 20.7646514 85.50603294 22.35514259 C82.97831753 24.87003782 80.45378908 27.38809357 77.93005371 29.90698242 C72.58025105 35.24539362 67.22652038 40.57985477 61.87223816 45.91377258 C55.64963036 52.11279782 49.42863334 58.31342169 43.21181679 64.51825523 C40.72041702 67.00315622 38.22603405 69.48503636 35.73153687 71.96682739 C34.21408164 73.48065234 32.69676537 74.99461661 31.17961121 76.50874329 C30.48197662 77.20121155 29.78434204 77.89367981 29.06556702 78.60713196 C28.4333876 79.23924088 27.80120819 79.87134979 27.14987183 80.52261353 C26.32226868 81.34688575 26.32226868 81.34688575 25.47794628 82.18780994 C23.12286419 84.76188946 23.05716508 86.63569354 23.04607296 90.01720619 C23.04059852 90.95125491 23.03512407 91.88530362 23.02948374 92.84765685 C23.02850563 93.88071436 23.02752752 94.91377187 23.02651978 95.97813416 C23.0215818 97.07015149 23.01664382 98.16216882 23.01155621 99.28727758 C22.99611648 102.97087978 22.98780311 106.65446446 22.97941589 110.33808899 C22.96984245 112.968894 22.9598327 115.59969746 22.94941711 118.23049927 C22.9276356 123.90700676 22.90949725 129.58351661 22.89381218 135.2600441 C22.87112878 143.46741506 22.84298385 151.6747601 22.8134929 159.88210909 C22.7657982 173.19701413 22.72253912 186.51192976 22.68205261 199.82685852 C22.64270723 212.76339034 22.60128332 225.69991275 22.55705261 238.63642883 C22.55432834 239.43343121 22.55160407 240.23043358 22.54879724 241.05158754 C22.53511792 245.04979341 22.52139762 249.04799914 22.50765693 253.04620481 C22.39366266 286.23120798 22.28685984 319.41623071 22.18473816 352.60127258 C17.76819561 352.68833544 13.35187359 352.74168637 8.93473816 352.78877258 C7.05335144 352.82647766 7.05335144 352.82647766 5.13395691 352.86494446 C3.92868347 352.87461243 2.72341003 352.8842804 1.48161316 352.89424133 C0.37140808 352.90995178 -0.738797 352.92566223 -1.88264465 352.94184875 C-5.165271 352.56062467 -6.49724182 351.91963169 -8.81526184 349.60127258 C-9.86644587 346.44772051 -9.94479807 344.23196274 -9.95227623 340.92057228 C-9.95988804 339.13448097 -9.95988804 339.13448097 -9.96765363 337.312307 C-9.96815139 335.99764275 -9.96864915 334.68297851 -9.96916199 333.32847595 C-9.97317643 331.92289209 -9.97761462 330.51730938 -9.98244154 329.11172807 C-9.99441444 325.24022334 -10.00005712 321.36873108 -10.0046227 317.49721146 C-10.01057588 313.32534211 -10.02218624 309.1534877 -10.03291321 304.98162842 C-10.05744066 294.90342773 -10.07206328 284.8252221 -10.08497328 274.74700075 C-10.08868445 271.90175266 -10.09265772 269.05650506 -10.09672594 266.21125746 C-10.12195769 248.55127733 -10.14401569 230.89129644 -10.15645409 213.23130226 C-10.15938388 209.14043296 -10.16234553 205.04956369 -10.1653595 200.95869446 C-10.16610555 199.94190288 -10.1668516 198.9251113 -10.16762026 197.87750785 C-10.18028237 181.39461453 -10.2135171 164.91182886 -10.25516133 148.42898591 C-10.29754314 131.51597046 -10.32114462 114.60301019 -10.32637465 97.68994176 C-10.32979264 88.18989992 -10.34159368 78.69002644 -10.37447739 69.19003677 C-10.40242729 61.10208543 -10.41349947 53.01433697 -10.40228193 44.92634107 C-10.39708258 40.79804544 -10.40006418 36.67017501 -10.42474747 32.54194069 C-10.447147 28.76422851 -10.44657365 24.98724925 -10.4275436 21.20952503 C-10.42339553 19.19222329 -10.44395757 17.17491776 -10.46533048 15.15772498 C-10.38834385 6.44866921 -10.38834385 6.44866921 -7.5782156 2.29342937 C-4.7135813 0.53899886 -3.31632296 -0.01877873 0 0 Z " fill="#2387FE" transform="translate(41.81526184082031,63.39872741699219)"/>
<path d="M0 0 C1.66482226 2.4972334 2.4444482 4.02568644 3.3046875 6.7890625 C14.4877783 41.35928874 33.08502153 69.90386699 58 96 C58.63292969 96.67417969 59.26585937 97.34835937 59.91796875 98.04296875 C85.5399202 124.63867607 125.64603287 148.3901878 162 155 C162 155.33 162 155.66 162 156 C141.59884845 156.07004407 121.19772126 156.12296559 100.79647446 156.15543652 C91.32407362 156.17091326 81.85174745 156.19201819 72.37939453 156.22631836 C64.1244385 156.25619601 55.86953654 156.27556913 47.61452794 156.28226548 C43.2425106 156.28618052 38.87064794 156.29539811 34.49868011 156.31719017 C30.38488148 156.33752955 26.27130149 156.34383899 22.15745735 156.33932304 C20.64654668 156.34014939 19.13562882 156.3461303 17.62476158 156.35761642 C15.56335314 156.37252121 13.50277242 156.36896171 11.44134521 156.36076355 C9.71021799 156.36491162 9.71021799 156.36491162 7.9441185 156.36914349 C4.67115419 155.9587682 3.31151515 155.31852853 1 153 C-0.08687324 149.73938027 -0.12312123 147.37610786 -0.12025452 143.94465637 C-0.12162918 142.67840927 -0.12300385 141.41216217 -0.12442017 140.10754395 C-0.12088102 138.70165992 -0.11724621 137.29577613 -0.11352539 135.88989258 C-0.11324336 134.41163637 -0.11340156 132.93338003 -0.1139679 131.4551239 C-0.11425526 127.43888848 -0.10836834 123.42268282 -0.10139394 119.40645432 C-0.0951503 115.21039877 -0.0945558 111.01434256 -0.09336853 106.81828308 C-0.0902582 98.87103333 -0.08204882 90.92379732 -0.07201904 82.97655362 C-0.06084866 73.92949966 -0.05534512 64.88244505 -0.05032361 55.83538592 C-0.03986597 37.22358282 -0.02227229 18.61179252 0 0 Z " fill="#9BC9FE" transform="translate(80,292)"/>
<path d="M0 0 C0.06949845 12.16968752 0.12281059 24.33932786 0.15543652 36.50917339 C0.17109501 42.16007686 0.19233687 47.81084458 0.22631836 53.46166992 C0.2589049 58.91462858 0.27685163 64.36745663 0.28463173 69.82050514 C0.29017648 71.90133533 0.30100393 73.98215835 0.31719017 76.06293297 C0.33895483 78.97660161 0.3419673 81.88973 0.34057617 84.8034668 C0.351362 85.66445984 0.36214783 86.52545288 0.3732605 87.41253662 C0.34921878 92.06350864 0.11974467 95.27828806 -3 99 C-6.98950829 100.3298361 -10.81089056 100.13074673 -14.96948242 100.11352539 C-16.34539299 100.11374443 -16.34539299 100.11374443 -17.74909973 100.1139679 C-20.78458003 100.11327057 -23.81999916 100.10548656 -26.85546875 100.09765625 C-28.95868394 100.09579143 -31.06189957 100.09436783 -33.16511536 100.09336853 C-38.70369666 100.08954839 -44.2422518 100.07972237 -49.78082275 100.06866455 C-55.43135219 100.05843964 -61.08188585 100.05386859 -66.73242188 100.04882812 C-77.82162609 100.03809968 -88.91081087 100.02102926 -100 100 C-95.21828061 94.24824587 -90.09111338 88.94906016 -84.79760742 83.66821289 C-83.89125549 82.76010864 -82.98490356 81.85200439 -82.05108643 80.91638184 C-79.58476791 78.44553707 -77.11533656 75.97782623 -74.64516234 73.51083684 C-72.05631592 70.92453439 -69.46992391 68.33577924 -66.88313293 65.74742126 C-62.54668672 61.40916124 -58.208148 57.07300226 -53.8684082 52.73803711 C-48.84608721 47.72117783 -43.82740655 42.70069847 -38.81056136 37.67836386 C-34.49892146 33.36219485 -30.18534715 29.04796636 -25.87013131 24.73537248 C-23.29423558 22.161038 -20.71902574 19.58602717 -18.14555931 17.00926399 C-15.28502817 14.14532344 -12.42045153 11.28546375 -9.55541992 8.42602539 C-8.27052422 7.13809334 -8.27052422 7.13809334 -6.95967102 5.82414246 C-6.18445099 5.05174225 -5.40923096 4.27934204 -4.61051941 3.48353577 C-3.93342013 2.80681352 -3.25632086 2.13009127 -2.55870342 1.43286228 C-1 0 -1 0 0 0 Z " fill="#3C99E1" transform="translate(192,44)"/>
<path d="M0 0 C0.33 0 0.66 0 1 0 C1.07011102 14.1254445 1.12279889 28.25086198 1.15543652 42.37644482 C1.17110002 48.93535072 1.19235112 55.49413983 1.22631836 62.05297852 C1.25888688 68.38125572 1.27684786 74.7094205 1.28463173 81.03777504 C1.2901797 83.45353274 1.30101336 85.86928422 1.31719017 88.28499413 C1.33893064 91.66563649 1.34196828 95.04581278 1.34057617 98.42651367 C1.351362 99.42776779 1.36214783 100.42902191 1.3732605 101.46061707 C1.33427983 110.19457227 1.33427983 110.19457227 -2 114 C-5.20347459 115.06782486 -7.48187823 115.12058306 -10.84838867 115.11352539 C-12.64991646 115.11341209 -12.64991646 115.11341209 -14.48783875 115.11329651 C-16.4332531 115.10555458 -16.4332531 115.10555458 -18.41796875 115.09765625 C-19.75889534 115.09579077 -21.09982261 115.09436748 -22.44075012 115.09336853 C-25.96709073 115.08955356 -29.49339004 115.07973199 -33.01971436 115.06866455 C-36.61925701 115.0584285 -40.21880635 115.05386621 -43.81835938 115.04882812 C-50.87892313 115.0381088 -57.93945887 115.02104462 -65 115 C-63.7282356 111.06804528 -62.38267032 107.63344163 -60.26953125 104.078125 C-59.72176025 103.14887207 -59.17398926 102.21961914 -58.60961914 101.26220703 C-58.01656982 100.26817871 -57.42352051 99.27415039 -56.8125 98.25 C-55.53580222 96.08632451 -54.25978329 93.92224834 -52.984375 91.7578125 C-52.32501953 90.64180664 -51.66566406 89.52580078 -50.98632812 88.37597656 C-47.81074644 82.9787367 -44.6862344 77.55236 -41.5625 72.125 C-40.30341652 69.94008624 -39.04430177 67.75519051 -37.78515625 65.5703125 C-37.16012207 64.48524414 -36.53508789 63.40017578 -35.89111328 62.28222656 C-32.76319851 56.85340057 -29.63140434 51.42681365 -26.5 46 C-25.26430886 43.85808102 -24.02863183 41.71615391 -22.79296875 39.57421875 C-20.49750542 35.59537568 -18.20176586 31.61669227 -15.90567017 27.63821411 C-14.87326522 25.84933082 -13.84092044 24.06041283 -12.80859375 22.27148438 C-11.51314052 20.02662364 -10.2175743 17.7818281 -8.921875 15.53710938 C-5.93692086 10.36428226 -2.95754683 5.18854991 0 0 Z " fill="#CFE5F6" transform="translate(415,333)"/>
<path d="M0 0 C3.57040303 0.65902299 6.17732255 2.16229158 9.25 4.0625 C10.14203125 4.61035156 11.0340625 5.15820312 11.953125 5.72265625 C12.62859375 6.14417969 13.3040625 6.56570312 14 7 C13.41933397 10.80560234 12.33578266 13.526577 10.3671875 16.82421875 C9.81619385 17.75669434 9.2652002 18.68916992 8.69750977 19.64990234 C7.79536743 21.15351318 7.79536743 21.15351318 6.875 22.6875 C5.58913841 24.86025981 4.30400648 27.03345157 3.01953125 29.20703125 C2.3538916 30.32932129 1.68825195 31.45161133 1.00244141 32.60791016 C-2.18475126 38.00694148 -5.31124675 43.4405284 -8.4375 48.875 C-9.69653156 51.05994368 -10.95564661 53.24483925 -12.21484375 55.4296875 C-13.15239502 57.05729004 -13.15239502 57.05729004 -14.10888672 58.71777344 C-17.23680148 64.14659942 -20.36858448 69.57319281 -23.5 75 C-24.75001879 77.16665583 -26.00001878 79.3333225 -27.25 81.5 C-29.75 85.83333333 -32.25 90.16666667 -34.75 94.5 C-35.36883057 95.57266113 -35.98766113 96.64532227 -36.62524414 97.75048828 C-37.87435518 99.91557071 -39.12354129 102.08060982 -40.37280273 104.24560547 C-43.51202309 109.68615706 -46.64990563 115.12747216 -49.78515625 120.5703125 C-55.80747367 131.02206266 -61.84677732 141.46294593 -67.9375 151.875 C-73.28074974 161.01241901 -78.56152619 170.18435864 -83.8125 179.375 C-84.34494827 180.30647858 -84.34494827 180.30647858 -84.88815308 181.2567749 C-88.56270118 187.56424248 -88.56270118 187.56424248 -92 194 C-92.66 194 -93.32 194 -94 194 C-95.20183475 191.42249905 -96.38656886 188.83928838 -97.5625 186.25 C-97.90474609 185.52039063 -98.24699219 184.79078125 -98.59960938 184.0390625 C-98.91865234 183.33007812 -99.23769531 182.62109375 -99.56640625 181.890625 C-99.86490479 181.24125977 -100.16340332 180.59189453 -100.47094727 179.92285156 C-101.84181863 174.94039523 -98.18319287 170.43807063 -95.8125 166.25 C-95.37180176 165.46415527 -94.93110352 164.67831055 -94.47705078 163.86865234 C-90.26553792 156.39521042 -85.9340331 148.99183556 -81.59692383 141.59082031 C-77.01042009 133.75771793 -72.49278881 125.88701889 -68 118 C-62.46048161 108.27856294 -56.86624806 98.59104683 -51.21655273 88.93310547 C-45.06233258 78.40915375 -38.97630004 67.84619863 -32.89111328 57.28222656 C-29.7631985 51.85340054 -26.6313691 46.42683401 -23.5 41 C-22.5872229 39.41759521 -22.5872229 39.41759521 -21.65600586 37.80322266 C-18.71486459 32.70441703 -15.77287674 27.60610433 -12.82830811 22.50927734 C-11.43041399 20.08952335 -10.03293911 17.66952737 -8.63549805 15.24951172 C-7.64347676 13.53198948 -6.65084571 11.81481948 -5.65820312 10.09765625 C-5.06201172 9.06511719 -4.46582031 8.03257812 -3.8515625 6.96875 C-3.32385254 6.05544922 -2.79614258 5.14214844 -2.25244141 4.20117188 C-1.46663489 2.82011309 -0.71060752 1.42121505 0 0 Z " fill="#FAC900" transform="translate(434,236)"/>
<path d="M0 0 C4.97209562 1.76429199 9.43438061 4.3939166 14 7 C12.575794 10.80962064 10.82091117 14.24403968 8.796875 17.76953125 C8.15363281 18.89294922 7.51039063 20.01636719 6.84765625 21.17382812 C6.14855234 22.38678495 5.44933056 23.59967384 4.75 24.8125 C4.02454649 26.07606103 3.29928874 27.33973448 2.57421875 28.60351562 C-2.47780307 37.39931183 -7.5829715 46.16379738 -12.70800781 54.91723633 C-17.19007634 62.58243398 -21.60403778 70.28527105 -26 78 C-31.53985933 87.72124506 -37.13374932 97.40894868 -42.78344727 107.06689453 C-47.02617273 114.32211726 -51.23998054 121.59353319 -55.4375 128.875 C-56.05657227 129.94886963 -56.67564453 131.02273926 -57.31347656 132.12915039 C-59.86322796 136.55350496 -62.41182081 140.97852587 -64.95996094 145.40380859 C-65.6099707 146.53254395 -66.25998047 147.6612793 -66.9296875 148.82421875 C-67.57421875 149.94401123 -68.21875 151.06380371 -68.8828125 152.2175293 C-70.1551179 154.4229767 -71.43107931 156.62631959 -72.7109375 158.82739258 C-75.50829547 163.64090778 -78.2683803 168.45935158 -80.8828125 173.375 C-81.32004639 174.17607178 -81.75728027 174.97714355 -82.20776367 175.80249023 C-82.99703351 177.25301056 -83.76492871 178.71548554 -84.50512695 180.19165039 C-85.88913558 182.69569567 -87.06559005 184.6761714 -89.85205078 185.6418457 C-91.9299852 185.93246073 -93.90313016 186.01766378 -96 186 C-97.5778125 186.04833984 -97.5778125 186.04833984 -99.1875 186.09765625 C-100.5796875 186.08025391 -100.5796875 186.08025391 -102 186.0625 C-102.94875 186.05347656 -103.8975 186.04445313 -104.875 186.03515625 C-105.926875 186.01775391 -105.926875 186.01775391 -107 186 C-105.575794 182.19037936 -103.82091117 178.75596032 -101.796875 175.23046875 C-101.15363281 174.10705078 -100.51039063 172.98363281 -99.84765625 171.82617188 C-99.14855234 170.61321505 -98.44933056 169.40032616 -97.75 168.1875 C-97.02454649 166.92393897 -96.29928874 165.66026552 -95.57421875 164.39648438 C-90.52219693 155.60068817 -85.4170285 146.83620262 -80.29199219 138.08276367 C-75.80992366 130.41756602 -71.39596222 122.71472895 -67 115 C-61.46014067 105.27875494 -55.86625068 95.59105132 -50.21655273 85.93310547 C-45.97382733 78.67788284 -41.76000503 71.40647504 -37.5625 64.125 C-36.94052734 63.04605469 -36.31855469 61.96710938 -35.67773438 60.85546875 C-33.78470874 57.57057008 -31.89224402 54.28534897 -30 51 C-22.39708216 37.79967382 -14.78625349 24.60407636 -7.125 11.4375 C-6.22285767 9.88361572 -6.22285767 9.88361572 -5.30249023 8.29833984 C-4.75149658 7.35297363 -4.20050293 6.40760742 -3.6328125 5.43359375 C-3.14699707 4.59884521 -2.66118164 3.76409668 -2.16064453 2.90405273 C-1 1 -1 1 0 0 Z " fill="#FA2F4F" transform="translate(407,220)"/>
<path d="M0 0 C5.37012135 3.74199411 9.30121965 8.37273281 11.33203125 14.625 C12.71853063 23.81055836 10.3762253 30.92803033 5.33203125 38.625 C4.34203125 39.12 4.34203125 39.12 3.33203125 39.625 C1.0480957 38.59619141 1.0480957 38.59619141 -1.8046875 36.9765625 C-2.85084229 36.38697754 -3.89699707 35.79739258 -4.97485352 35.18994141 C-6.64825806 34.22967041 -6.64825806 34.22967041 -8.35546875 33.25 C-9.48202881 32.6111084 -10.60858887 31.9722168 -11.76928711 31.31396484 C-20.14647 26.54570092 -28.45599788 21.6723577 -36.66796875 16.625 C-35.71011432 10.06825839 -31.94179143 5.78221639 -27.23046875 1.3125 C-18.1370476 -4.67585051 -9.65030835 -5.34946227 0 0 Z " fill="#EDEEEE" transform="translate(468.66796875,162.375)"/>
<path d="M0 0 C7.60808665 3.69535637 14.90610281 7.7629649 22.1875 12.0625 C24.26418207 13.28279181 26.34100141 14.50285004 28.41796875 15.72265625 C29.38009277 16.28871582 30.3422168 16.85477539 31.33349609 17.43798828 C34.541691 19.31731725 37.76590669 21.16566985 41 23 C40.16556117 28.86219684 37.08661842 33.07454507 34 38 C26.39924517 33.87924328 18.84040723 29.68979091 11.3125 25.4375 C10.33216797 24.88642578 9.35183594 24.33535156 8.34179688 23.76757812 C2.80444013 20.64099291 -2.63653578 17.41658397 -8 14 C-5.36 9.38 -2.72 4.76 0 0 Z " fill="#006AEB" transform="translate(423,192)"/>
<path d="M0 0 C4.95 12.375 4.95 12.375 10 25 C4 29 4 29 1.91015625 28.984375 C-0.572174 27.70513733 -2.46200362 26.09096223 -4.5625 24.25 C-11.85600105 18.24548294 -20.19254222 15.15739052 -29 12 C-28.67 8.7 -28.34 5.4 -28 2 C-25.39670852 1.65818447 -22.79272477 1.32648033 -20.1875 1 C-19.46884766 0.90460938 -18.75019531 0.80921875 -18.00976562 0.7109375 C-11.8707407 -0.04629906 -6.31538623 0 0 0 Z " fill="#EAEBEB" transform="translate(320,421)"/>
<path d="M0 0 C6.18749435 0.3256576 11.085967 3.44704809 16 7 C16.99 8.485 16.99 8.485 18 10 C1.63106796 22 1.63106796 22 -1 22 C-1.11459026 14.58982977 -0.91160286 7.35793733 0 0 Z " fill="#7A7C7F" transform="translate(290,450)"/>
</svg>
